<svg xmlns="http://www.w3.org/2000/svg" version="1.1" xmlns:xlink="http://www.w3.org/1999/xlink" xmlns:svgjs="http://svgjs.dev/svgjs" width="1000" height="623" viewBox="0 0 1000 623"><g transform="matrix(1,0,0,1,-0.6060606060606233,0.2522267206477409)"><svg viewBox="0 0 396 247" data-background-color="#ffffff" preserveAspectRatio="xMidYMid meet" height="623" width="1000" xmlns="http://www.w3.org/2000/svg" xmlns:xlink="http://www.w3.org/1999/xlink"><g id="tight-bounds" transform="matrix(1,0,0,1,0.2400000000000091,-0.09999999999999432)"><svg viewBox="0 0 395.52 247.2" height="247.2" width="395.52"><g><svg></svg></g><g><svg viewBox="0 0 395.52 247.2" height="247.2" width="395.52"><g transform="matrix(1,0,0,1,118.65599999999999,113.99377399279396)"><svg viewBox="0 0 158.208 19.21245201441205" height="19.21245201441205" width="158.208"><g><svg viewBox="0 0 158.208 19.21245201441205" height="19.21245201441205" width="158.208"><g><svg viewBox="0 0 158.208 19.21245201441205" height="19.21245201441205" width="158.208"><g><svg viewBox="0 0 158.208 19.21245201441205" height="19.21245201441205" width="158.208"><g><svg viewBox="0 0 158.208 19.21245201441205" height="19.21245201441205" width="158.208"><g><svg viewBox="0 0 158.208 19.21245201441205" height="19.21245201441205" width="158.208"><g transform="matrix(1,0,0,1,0,0)"><svg width="158.208" viewBox="1.2000000476837158 -35.45000076293945 298.1199951171875 36.209999084472656" height="19.21245201441205" data-palette-color="#0063db"><path d="M1.2-24.51L1.2-24.51Q1.2-26.68 2.03-28.59 2.86-30.49 4.28-31.92 5.71-33.35 7.62-34.18 9.52-35.01 11.69-35.01L11.69-35.01 27.76-35.01 27.76-28 11.69-28Q10.96-28 10.33-27.73 9.69-27.47 9.22-26.99 8.74-26.51 8.47-25.88 8.2-25.24 8.2-24.51L8.2-24.51Q8.2-23.78 8.47-23.13 8.74-22.49 9.22-22.01 9.69-21.53 10.33-21.26 10.96-21 11.69-21L11.69-21 18.7-21Q20.87-21 22.79-20.18 24.71-19.36 26.14-17.93 27.56-16.5 28.38-14.59 29.2-12.67 29.2-10.5L29.2-10.5Q29.2-8.33 28.38-6.42 27.56-4.52 26.14-3.09 24.71-1.66 22.79-0.83 20.87 0 18.7 0L18.7 0 3.15 0 3.15-7.01 18.7-7.01Q19.43-7.01 20.07-7.28 20.7-7.54 21.18-8.02 21.66-8.5 21.92-9.13 22.19-9.77 22.19-10.5L22.19-10.5Q22.19-11.23 21.92-11.87 21.66-12.5 21.18-12.98 20.7-13.45 20.07-13.72 19.43-13.99 18.7-13.99L18.7-13.99 11.69-13.99Q9.52-13.99 7.62-14.82 5.71-15.65 4.28-17.08 2.86-18.51 2.03-20.42 1.2-22.34 1.2-24.51ZM68.09-17.36L68.09-17.36Q68.09-14.87 67.44-12.56 66.79-10.25 65.62-8.24 64.45-6.23 62.79-4.57 61.13-2.91 59.13-1.72 57.13-0.54 54.81 0.11 52.49 0.76 50 0.76L50 0.76Q47.51 0.76 45.2 0.11 42.89-0.54 40.88-1.72 38.86-2.91 37.2-4.57 35.54-6.23 34.36-8.24 33.18-10.25 32.53-12.56 31.88-14.87 31.88-17.36L31.88-17.36Q31.88-19.85 32.53-22.17 33.18-24.49 34.36-26.49 35.54-28.49 37.2-30.15 38.86-31.81 40.88-32.98 42.89-34.16 45.2-34.8 47.51-35.45 50-35.45L50-35.45Q52.49-35.45 54.81-34.8 57.13-34.16 59.13-32.98 61.13-31.81 62.79-30.15 64.45-28.49 65.62-26.49 66.79-24.49 67.44-22.17 68.09-19.85 68.09-17.36ZM61.13-17.36L61.13-17.36Q61.13-19.65 60.25-21.69 59.37-23.73 57.87-25.23 56.37-26.73 54.33-27.61 52.29-28.49 50-28.49L50-28.49Q47.68-28.49 45.65-27.61 43.63-26.73 42.11-25.23 40.6-23.73 39.72-21.69 38.84-19.65 38.84-17.36L38.84-17.36Q38.84-15.06 39.72-13.05 40.6-11.04 42.11-9.52 43.63-8.01 45.65-7.13 47.68-6.25 50-6.25L50-6.25Q52.29-6.25 54.33-7.13 56.37-8.01 57.87-9.52 59.37-11.04 60.25-13.05 61.13-15.06 61.13-17.36ZM100.29-35.01L100.29-13.99Q100.29-11.08 99.19-8.53 98.09-5.98 96.19-4.09 94.28-2.2 91.73-1.1 89.18 0 86.27 0L86.27 0Q83.37 0 80.82-1.1 78.27-2.2 76.37-4.09 74.48-5.98 73.38-8.53 72.29-11.08 72.29-13.99L72.29-13.99 72.29-35.01 79.27-35.01 79.27-13.99Q79.27-12.55 79.82-11.28 80.37-10.01 81.32-9.06 82.27-8.11 83.55-7.56 84.83-7.01 86.27-7.01L86.27-7.01Q87.71-7.01 89-7.56 90.28-8.11 91.23-9.06 92.18-10.01 92.73-11.28 93.28-12.55 93.28-13.99L93.28-13.99 93.28-35.01 100.29-35.01ZM134.37-10.5L134.37-10.5Q134.37-8.33 133.54-6.42 132.71-4.52 131.28-3.09 129.85-1.66 127.95-0.83 126.04 0 123.87 0L123.87 0 106.36 0 106.36-35.01 123.87-35.01Q126.04-35.01 127.95-34.18 129.85-33.35 131.28-31.92 132.71-30.49 133.54-28.59 134.37-26.68 134.37-24.51L134.37-24.51Q134.37-23.54 134.1-22.51 133.83-21.48 133.34-20.53 132.85-19.58 132.17-18.8 131.49-18.02 130.66-17.5L130.66-17.5Q131.51-17.04 132.19-16.25 132.88-15.45 133.37-14.5 133.85-13.55 134.11-12.51 134.37-11.47 134.37-10.5ZM113.37-13.99L113.37-7.01 123.87-7.01Q124.6-7.01 125.24-7.28 125.87-7.54 126.35-8.02 126.82-8.5 127.09-9.13 127.36-9.77 127.36-10.5L127.36-10.5Q127.36-11.23 127.09-11.87 126.82-12.5 126.35-12.98 125.87-13.45 125.24-13.72 124.6-13.99 123.87-13.99L123.87-13.99 113.37-13.99ZM113.37-28L113.37-21 123.87-21Q124.6-21 125.24-21.26 125.87-21.53 126.35-22.01 126.82-22.49 127.09-23.13 127.36-23.78 127.36-24.51L127.36-24.51Q127.36-25.24 127.09-25.88 126.82-26.51 126.35-26.99 125.87-27.47 125.24-27.73 124.6-28 123.87-28L123.87-28 113.37-28ZM146.67-13.99L146.67 0 139.66 0 139.66-35.01 146.67-35.01 146.67-21 160.66-21 160.66-35.01 167.67-35.01 167.67 0 160.66 0 160.66-13.99 146.67-13.99ZM180.75-13.99L194.76-13.99 194.76-21Q194.76-22.44 194.21-23.72 193.66-25 192.71-25.95 191.76-26.9 190.48-27.45 189.2-28 187.76-28L187.76-28Q186.32-28 185.03-27.45 183.75-26.9 182.8-25.95 181.85-25 181.3-23.72 180.75-22.44 180.75-21L180.75-21 180.75-13.99ZM201.77-21L201.77 0 194.76 0 194.76-7.01 180.75-7.01 180.75 0 173.77 0 173.77-21Q173.77-23.9 174.87-26.45 175.96-29 177.86-30.91 179.75-32.81 182.3-33.91 184.85-35.01 187.76-35.01L187.76-35.01Q190.66-35.01 193.21-33.91 195.76-32.81 197.67-30.91 199.57-29 200.67-26.45 201.77-23.9 201.77-21L201.77-21ZM235.7-17.36L235.7-3.54Q233.26-1.46 230.26-0.35 227.26 0.76 224.01 0.76L224.01 0.76Q221.52 0.76 219.21 0.11 216.9-0.54 214.9-1.72 212.9-2.91 211.24-4.55 209.58-6.2 208.41-8.22 207.24-10.23 206.59-12.55 205.94-14.87 205.94-17.36L205.94-17.36Q205.94-19.85 206.59-22.14 207.24-24.44 208.41-26.45 209.58-28.47 211.24-30.11 212.9-31.76 214.9-32.93 216.9-34.11 219.21-34.75 221.52-35.4 224.01-35.4L224.01-35.4Q227.26-35.4 230.26-34.29 233.26-33.18 235.7-31.1L235.7-31.1 232.04-25Q230.45-26.61 228.38-27.53 226.3-28.44 224.01-28.44L224.01-28.44Q221.71-28.44 219.7-27.56 217.69-26.68 216.17-25.18 214.66-23.68 213.78-21.67 212.9-19.65 212.9-17.36L212.9-17.36Q212.9-15.04 213.78-13.01 214.66-10.99 216.17-9.47 217.69-7.96 219.7-7.08 221.71-6.2 224.01-6.2L224.01-6.2Q225.33-6.2 226.57-6.52 227.82-6.84 228.94-7.4L228.94-7.4 228.94-17.36 235.7-17.36ZM256.84-10.96L256.84 0 249.86 0 249.86-10.96Q247.54-11.55 245.6-12.84 243.66-14.14 242.27-15.93 240.88-17.72 240.11-19.91 239.34-22.09 239.34-24.51L239.34-24.51 239.34-35.01 246.34-35.01 246.34-24.51Q246.34-23.07 246.89-21.79 247.44-20.51 248.4-19.56 249.35-18.6 250.63-18.05 251.91-17.5 253.35-17.5L253.35-17.5Q254.79-17.5 256.07-18.05 257.36-18.6 258.31-19.56 259.26-20.51 259.81-21.79 260.36-23.07 260.36-24.51L260.36-24.51 260.36-35.01 267.34-35.01 267.34-24.51Q267.34-22.09 266.57-19.91 265.8-17.72 264.41-15.93 263.02-14.14 261.09-12.84 259.16-11.55 256.84-10.96L256.84-10.96ZM278.3-13.99L292.31-13.99 292.31-21Q292.31-22.44 291.76-23.72 291.22-25 290.26-25.95 289.31-26.9 288.03-27.45 286.75-28 285.31-28L285.31-28Q283.87-28 282.58-27.45 281.3-26.9 280.35-25.95 279.4-25 278.85-23.72 278.3-22.44 278.3-21L278.3-21 278.3-13.99ZM299.32-21L299.32 0 292.31 0 292.31-7.01 278.3-7.01 278.3 0 271.32 0 271.32-21Q271.32-23.9 272.42-26.45 273.52-29 275.41-30.91 277.3-32.81 279.85-33.91 282.4-35.01 285.31-35.01L285.31-35.01Q288.21-35.01 290.76-33.91 293.31-32.81 295.22-30.91 297.12-29 298.22-26.45 299.32-23.9 299.32-21L299.32-21Z" opacity="1" transform="matrix(1,0,0,1,0,0)" fill="#0063db" class="undefined-text-0" data-fill-palette-color="primary" id="text-0"></path></svg></g></svg></g></svg></g></svg></g></svg></g></svg></g></svg></g><g mask="url(#eac96927-9e05-45d5-8e2f-af7ffb9536ca)"><g transform="matrix(1.946031746031746, 0, 0, 1.946031746031746, 75.16, 1)"><svg xmlns="http://www.w3.org/2000/svg" xmlns:xlink="http://www.w3.org/1999/xlink" version="1.1" x="0" y="0" viewBox="1 1 126 126" style="enable-background:new 0 0 128 128;" xml:space="preserve" height="126" width="126" class="icon-none" data-fill-palette-color="accent" id="none"><g fill="#d90000" data-fill-palette-color="accent"><path d="M110.937 52.703c-7.691-4.44-16.653-5.62-25.231-3.321-8.267 2.215-15.218 7.411-19.687 14.668 9.403 17.409 3.288 39.323-13.954 49.278-5.771 3.331-12.084 4.915-18.313 4.915-0.632 0-1.264-0.028-1.894-0.062C41.271 123.777 52.257 127 64 127c31.814 0 58.104-23.586 62.378-54.223C124.154 64.602 118.837 57.265 110.937 52.703z" fill="#d90000" data-fill-palette-color="accent"></path><path d="M64 1c-8.339 0-16.291 1.635-23.575 4.577C34.448 11.591 30.749 19.872 30.749 29c0 18.01 14.396 32.711 32.285 33.226 4.938-8.026 12.624-13.774 21.766-16.224 9.482-2.54 19.386-1.237 27.887 3.671 6.348 3.666 11.181 8.957 14.295 15.043C126.983 64.476 127 64.24 127 64 127 29.206 98.795 1 64 1z" fill="#d90000" data-fill-palette-color="accent"></path><path d="M50.314 110.297c15.598-9.006 21.13-28.825 12.632-44.574C43.168 65.162 27.249 48.91 27.249 29c0-7.337 2.17-14.175 5.891-19.918C13.961 19.882 1 40.421 1 64c0 20.167 9.486 38.105 24.228 49.636C33.414 115.793 42.419 114.854 50.314 110.297z" fill="#d90000" data-fill-palette-color="accent"></path></g></svg></g></g></svg></g><defs><mask id="6b7fad01-581c-48ff-8c56-bd91bedda767"><rect width="640" height="400" fill="white"></rect><rect width="348.05760000000004" height="66.3376535604781" fill="black" x="145.97119999999998" y="166.83117321976096" id="transform-me" transform="matrix(1,0,0,1,-122.24000000000001,-76.4)"></rect></mask><mask id="93935ea4-639d-43fc-9ff4-d0a8493a2e87"><rect width="640" height="400" fill="white"></rect><rect width="348.05760000000004" height="66.3376535604781" fill="black" x="145.97119999999998" y="166.83117321976096" id="transform-me" transform="matrix(1,0,0,1,-122.24000000000001,-76.4)"></rect></mask><mask id="36c4d66f-8fb1-4498-b373-b8364bda8453"><rect width="640" height="400" fill="white"></rect><rect width="348.05760000000004" height="46.05322605271769" fill="black" x="145.97119999999998" y="176.97338697364114" id="transform-me" transform="matrix(1,0,0,1,-122.24000000000001,-76.4)"></rect></mask><mask id="6a1a48f0-013d-471d-8e48-1c161f9beb06"><rect width="640" height="400" fill="white"></rect><rect width="348.05760000000004" height="58.26063974160233" fill="black" x="145.97119999999998" y="170.86968012919883" id="transform-me" transform="matrix(1,0,0,1,-122.24000000000001,-76.4)"></rect></mask><mask id="e3f7c1f6-abe6-4e94-8adf-60a7f9b77269"><rect width="640" height="400" fill="white"></rect><rect width="348.05760000000004" height="64.58229011618693" fill="black" x="145.97119999999998" y="167.70885494190654" id="transform-me" transform="matrix(1,0,0,1,-122.24000000000001,-76.4)"></rect></mask><mask id="c925127e-3967-4da3-b19d-5fe0c898133b"><rect width="640" height="400" fill="white"></rect><rect width="348.05760000000004" height="95.56527346494723" fill="black" x="145.97119999999998" y="152.2173632675264" id="transform-me" transform="matrix(1,0,0,1,-122.24000000000001,-76.4)"></rect></mask><mask id="d79adf58-2204-4d04-bef8-71fa7c553ee9"><rect width="640" height="400" fill="white"></rect><rect width="348.05760000000004" height="52.616184632" fill="black" x="145.97119999999998" y="173.691907684" id="transform-me" transform="matrix(1,0,0,1,-122.24000000000001,-76.4)"></rect></mask><mask id="9fec0027-6695-402f-b3be-b14cf6bb8f46"><rect width="640" height="400" fill="white"></rect><rect width="348.05760000000004" height="54.04593338653365" fill="black" x="145.97119999999998" y="172.97703330673318" id="transform-me" transform="matrix(1,0,0,1,-122.24000000000001,-76.4)"></rect></mask><mask id="47d535f6-ed18-484e-a1c8-b6b4dfc2e5ff"><rect width="640" height="400" fill="white"></rect><rect width="348.05760000000004" height="72.76403300333128" fill="black" x="145.97119999999998" y="163.61798349833435" id="transform-me" transform="matrix(1,0,0,1,-122.24000000000001,-76.4)"></rect></mask><mask id="c27520b8-186a-4c49-8ef0-19da36b2406e"><rect width="640" height="400" fill="white"></rect><rect width="348.05760000000004" height="71.31076417310827" fill="black" x="145.97119999999998" y="164.34461791344586" id="transform-me" transform="matrix(1,0,0,1,-122.24000000000001,-76.4)"></rect></mask><mask id="a86b5681-3e0a-4a03-aaab-26b03f4d87f3"><rect width="640" height="400" fill="white"></rect><rect width="348.05760000000004" height="56.56729931584146" fill="black" x="145.97119999999998" y="171.71635034207927" id="transform-me" transform="matrix(1,0,0,1,-122.24000000000001,-76.4)"></rect></mask><mask id="eac96927-9e05-45d5-8e2f-af7ffb9536ca"><rect width="640" height="400" fill="white"></rect><rect width="174.02880000000002" height="28.28364965792073" fill="black" x="232.98559999999998" y="185.85817517103965" id="transform-me" transform="matrix(1,0,0,1,-122.24000000000001,-76.4)"></rect></mask></defs></svg><rect width="395.52" height="247.2" fill="none" stroke="none" visibility="hidden"></rect></g></svg></g></svg>